<?xml version="1.0" encoding="UTF-8"?>
<svg width="188px" height="188px" viewBox="0 0 188 188" version="1.1" xmlns="http://www.w3.org/2000/svg" xmlns:xlink="http://www.w3.org/1999/xlink">
    <!-- Generator: sketchtool 57.1 (101010) - https://sketch.com -->
    <title>55149A80-DF42-4E86-8727-CBDE7043B5B4</title>
    <desc>Created with sketchtool.</desc>
    <defs>
        <circle id="path-1" cx="90" cy="90" r="90"></circle>
        <filter x="-3.9%" y="-2.8%" width="107.8%" height="107.8%" filterUnits="objectBoundingBox" id="filter-2">
            <feOffset dx="0" dy="2" in="SourceAlpha" result="shadowOffsetOuter1"></feOffset>
            <feGaussianBlur stdDeviation="2" in="shadowOffsetOuter1" result="shadowBlurOuter1"></feGaussianBlur>
            <feColorMatrix values="0 0 0 0 0   0 0 0 0 0   0 0 0 0 0  0 0 0 0.5 0" type="matrix" in="shadowBlurOuter1"></feColorMatrix>
        </filter>
    </defs>
    <g id="Page-1" stroke="none" stroke-width="1" fill="none" fill-rule="evenodd" opacity="0.32">
        <g id="customer--Tab" transform="translate(-418.000000, -304.000000)">
            <g id="Group-3-Copy" transform="translate(422.000000, 306.000000)">
                <g id="Oval">
                    <use fill="black" fill-opacity="1" filter="url(#filter-2)" xlink:href="#path-1"></use>
                    <use fill="#FFFFFF" fill-rule="evenodd" xlink:href="#path-1"></use>
                </g>
                <g id="teacher" transform="translate(45.000000, 22.000000)" fill-rule="nonzero">
                    <g id="Group" transform="translate(2.000000, 2.000000)">
                        <path d="M79.2869568,49.1747903 C91.8880802,-6.01451215e-06 57.9762099,5.06949194 57.9762099,5.06949194 C57.9762099,5.06949194 48.1292099,-3.65714516 30.4174568,1.78865323 C12.284463,7.36405645 11.5563827,20.1273387 0.131388889,25.7660806 C0.131388889,25.7660806 3.21809877,30.0305323 10.2146235,30.0528871 C9.89716667,35.5750645 10.5570309,41.9304919 12.3808148,49.1747903 L79.2869568,49.1747903 L79.2869568,49.1747903 Z" id="Path" fill="#2D4456"></path>
                        <path d="M19.9116543,39.6404516 C15.8643457,39.6404516 12.4899074,42.5258226 11.721216,46.3564839 C11.9216173,47.28075 12.1405988,48.2193871 12.3810802,49.1745242 L20.7756358,49.1745242 L20.7756358,39.684629 C20.4916235,39.655621 20.2033642,39.6404516 19.9116543,39.6404516 Z" id="Path" fill="#253847"></path>
                        <path d="M79.2869568,49.1747903 C79.5279691,48.2345565 79.7496049,47.3166774 79.9571728,46.4158306 C79.2113086,42.5558952 75.8241296,39.6407177 71.7561173,39.6407177 C71.4644074,39.6407177 71.1761481,39.6558871 70.8921358,39.6851613 L70.8921358,49.1750565 L79.2869568,49.1750565 L79.2869568,49.1747903 Z" id="Path" fill="#253847"></path>
                        <path d="M85.8686111,132 L5.79942593,132 L5.79942593,110.623718 C5.79942593,93.5275887 19.6223333,79.6683871 36.6736914,79.6683871 L54.9943457,79.6683871 C72.0457037,79.6683871 85.8686111,93.5275887 85.8686111,110.623718 L85.8686111,132 L85.8686111,132 Z" id="Path" fill="#86DCFF"></path>
                        <polygon id="Path" fill="#56CAED" points="5.79942593 127.209677 85.8686111 127.209677 85.8686111 132 5.79942593 132"></polygon>
                        <polygon id="Path" fill="#FF5876" points="41.1884259 91.0592419 50.4777531 91.0592419 54.7578457 114.578661 45.8340185 123.618 36.9083333 114.578661"></polygon>
                        <path d="M44.8906728,117.872274 L37.6443765,110.533766 L36.9083333,114.578661 L45.8337531,123.618 L54.7575802,114.578661 L54.021537,110.533766 L46.7768333,117.872274 C46.2576481,118.398411 45.4101235,118.398411 44.8906728,117.872274 Z" id="Path" fill="#E6485D"></path>
                        <polygon id="Path" fill="#E6485D" points="50.4777531 91.0592419 41.1884259 91.0592419 36.7764136 79.6683871 54.8897654 79.6683871"></polygon>
                        <path d="M55.520963,18.7035484 C45.2145,32.4198387 20.7756358,35.0260403 20.7756358,35.0260403 L20.7756358,54.5444758 C20.7756358,68.4201774 31.9946543,79.6683871 45.8337531,79.6683871 C59.6728519,79.6683871 70.8918704,68.4201774 70.8918704,54.5444758 L70.8918704,35.4643548 C70.8918704,35.464621 60.5633765,32.0645565 55.520963,18.7035484 Z" id="Path" fill="#FFE0CC"></path>
                        <path d="M45.8340185,74.8780645 C31.9946543,74.8780645 20.7759012,63.6298548 20.7759012,49.7541532 L20.7759012,54.5444758 C20.7759012,68.4201774 31.9949198,79.6683871 45.8340185,79.6683871 C59.6731173,79.6683871 70.8921358,68.4201774 70.8921358,54.5444758 L70.8921358,49.7541532 C70.8921358,63.6298548 59.6731173,74.8780645 45.8340185,74.8780645 Z" id="Path" fill="#FFCEB3"></path>
                        <path d="M20.7756358,54.5444758 L20.7756358,44.4752177 C20.4916235,44.4459435 20.2033642,44.4307742 19.9116543,44.4307742 C15.2971173,44.4307742 11.5561173,48.1813306 11.5561173,52.8079839 C11.5561173,57.4346371 15.2968519,61.1854597 19.9116543,61.1854597 C20.4953395,61.1854597 21.0649568,61.1250484 21.6151975,61.0106129 C21.0686728,58.9473145 20.7756358,56.7802258 20.7756358,54.5444758 L20.7756358,54.5444758 Z" id="Path" fill="#FFC4AD"></path>
                        <path d="M71.7561173,44.4307742 C71.4644074,44.4307742 71.1761481,44.4459435 70.8921358,44.4752177 L70.8921358,54.5444758 C70.8921358,56.7802258 70.5993642,58.9473145 70.0525741,61.0106129 C70.6025494,61.1247823 71.1721667,61.1854597 71.7561173,61.1854597 C76.3706543,61.1854597 80.1116543,57.4349032 80.1116543,52.8079839 C80.1116543,48.1813306 76.3706543,44.4307742 71.7561173,44.4307742 Z" id="Path" fill="#FFC4AD"></path>
                        <path d="M19.9116543,56.3951371 C16.1273889,56.3951371 12.9326481,53.8722339 11.9046296,50.4128226 C11.6790123,51.1718226 11.5561173,51.9755323 11.5561173,52.8079839 C11.5561173,57.4346371 15.2968519,61.1854597 19.9116543,61.1854597 C20.4953395,61.1854597 21.0649568,61.1250484 21.6149321,61.0106129 C21.2162531,59.5053871 20.9542716,57.9442742 20.8406667,56.3421774 C20.5356852,56.3762419 20.2259259,56.3951371 19.9116543,56.3951371 L19.9116543,56.3951371 Z" id="Path" fill="#FFB69F"></path>
                        <path d="M71.7561173,56.3951371 C71.4418457,56.3951371 71.1320864,56.3762419 70.8268395,56.3421774 C70.7132346,57.9442742 70.4515185,59.5053871 70.0525741,61.0106129 C70.6025494,61.1247823 71.1721667,61.1854597 71.7561173,61.1854597 C76.3706543,61.1854597 80.1113889,57.4349032 80.1113889,52.8079839 C80.1113889,51.9755323 79.9884938,51.1718226 79.7628765,50.4128226 C78.7351235,53.8722339 75.5403827,56.3951371 71.7561173,56.3951371 L71.7561173,56.3951371 Z" id="Path" fill="#FFB69F"></path>
                        <g transform="translate(17.518519, 35.927419)" fill="#E4EEF9" id="Oval">
                            <ellipse transform="translate(13.621835, 13.712633) rotate(-66.869091) translate(-13.621835, -13.712633) " cx="13.6218352" cy="13.7126334" rx="10.3560921" ry="10.3373345"></ellipse>
                            <ellipse transform="translate(43.089721, 13.697593) rotate(-23.130909) translate(-43.089721, -13.697593) " cx="43.0897211" cy="13.6975929" rx="10.3373345" ry="10.3560921"></ellipse>
                        </g>
                    </g>
                    <g id="Group" fill="#000000">
                        <path d="M83.0999118,92.6547812 C82.4339118,91.7784844 81.1852941,91.6098125 80.3122941,92.2791875 C79.4390294,92.9477656 79.2714706,94.2004531 79.9377353,95.07675 C83.7995294,100.154172 85.8404118,106.223437 85.8404118,112.628719 L85.8404118,132.008453 L74.0162647,132.008453 L74.0162647,116.455312 C74.0162647,115.352969 73.1257941,114.459406 72.0272647,114.459406 C70.9287353,114.459406 70.0382647,115.352969 70.0382647,116.455312 L70.0382647,132.008188 L25.6211471,132.008188 L25.6211471,116.455312 C25.6211471,115.352969 24.7306765,114.459406 23.6321471,114.459406 C22.5336176,114.459406 21.6431471,115.352969 21.6431471,116.455312 L21.6431471,132.008188 L9.819,132.008188 L9.819,124.732453 C9.819,123.630109 8.92852941,122.736547 7.83,122.736547 C6.73147059,122.736547 5.841,123.630109 5.841,124.732453 L5.841,134.004094 C5.841,135.106437 6.73147059,136 7.83,136 L87.8294118,136 C88.9279412,136 89.8184118,135.106437 89.8184118,134.004094 L89.8184118,112.628453 C89.8184118,105.340766 87.4950882,98.4339844 83.0999118,92.6547812 Z" id="Path"></path>
                        <path d="M12.3162353,51.010625 C11.8514118,52.1894687 11.5930588,53.4719062 11.5930588,54.814375 C11.5930588,60.5340781 16.2301765,65.1872969 21.9300882,65.1872969 C22.0224706,65.1872969 22.1151176,65.1827812 22.2075,65.180125 C24.3087353,71.4459531 28.6332353,76.6949687 34.2349412,79.9804844 C18.2223529,82.1633906 5.84073529,95.9711094 5.84073529,112.628187 L5.84073529,116.748562 C5.84073529,117.850906 6.73120588,118.744469 7.82973529,118.744469 C8.92826471,118.744469 9.81873529,117.850906 9.81873529,116.748562 L9.81873529,112.628187 C9.81873529,97.0800937 22.0936765,84.3566562 37.4296765,83.6984375 L41.1305294,93.2609375 L36.9553235,116.22475 C36.8388529,116.865969 37.0416176,117.523922 37.4985,117.987172 L46.4161765,127.026125 C47.1581471,127.808656 48.5017941,127.808656 49.2432353,127.026125 L58.1593235,117.987172 C58.6164706,117.524187 58.8189706,116.865969 58.7025,116.225016 L54.5270294,93.2612031 L58.2284118,83.6965781 C64.2512647,83.9494531 69.9217941,86.0346094 74.6973529,89.7666406 C75.5637353,90.4439844 76.8136765,90.2880625 77.4886765,89.4184062 C78.1636765,88.54875 78.0082941,87.2947344 77.1416471,86.6173906 C72.5143235,83.0011719 67.1482059,80.7481406 61.4271176,79.9788906 C67.0275,76.693375 71.3506765,71.4448906 73.4516471,65.180125 C73.5440294,65.1825156 73.6364118,65.1872969 73.7290588,65.1872969 C79.4289706,65.1872969 84.0660882,60.5340781 84.0660882,54.814375 C84.0660882,53.4729687 83.8082647,52.1918594 83.3442353,51.0140781 C87.8929412,32.8262031 86.6964706,19.69875 79.7775882,11.99775 C73.1472353,4.617625 63.5172353,4.76239062 60.5538529,5.00703125 C57.8594118,3.02121875 47.8765588,-3.04565625 31.8438529,1.88859375 C29.9295,2.47748437 28.1056765,3.17607812 26.4232059,3.96445312 C25.4279118,4.43115625 24.9980294,5.61876562 25.4628529,6.61751562 C25.9276765,7.61626562 27.1111765,8.04790625 28.1064706,7.58120312 C29.6219118,6.87092187 31.2715588,6.23953125 33.0098824,5.70482812 C39.8670882,3.59496875 46.2626471,3.4350625 52.0189412,5.2306875 C56.3098235,6.56917187 58.6278529,8.55870312 58.644,8.57251562 C59.0836765,8.96271875 59.6723824,9.13803125 60.2547353,9.05117187 C60.3553235,9.03603125 70.4829706,7.61360937 76.8229412,14.6702031 C79.4861471,17.6343125 81.1543235,21.7374219 81.7819412,26.8650469 C82.4532353,32.3496719 81.9357353,39.0351875 80.2516765,46.7744375 C78.7452353,45.5416719 76.8877941,44.7259375 74.8548529,44.5041406 L74.8548529,37.4714531 C74.8548529,36.6089687 74.3029412,35.8442344 73.4863235,35.5751562 C73.3920882,35.5443437 64.0159412,32.3302812 59.3682353,20.00475 C59.1117353,19.3244844 58.5068824,18.838125 57.7895294,18.7353281 C57.0705882,18.6327969 56.3553529,18.9292344 55.9193824,19.5101562 C46.2703235,32.3624219 22.8179118,35.0231875 22.5828529,35.0484219 C21.5714118,35.1562656 20.8040294,36.0126406 20.8040294,37.0331719 L20.8040294,44.5044062 C18.7864412,44.7246094 16.9422353,45.5299844 15.4421471,46.7470781 C14.3835882,41.4640625 13.9740882,36.5762969 14.2271471,32.1751562 C14.2586471,31.6277031 14.0646176,31.0916719 13.6900588,30.6924375 C13.3155,30.2932031 12.7942941,30.0660937 12.2476765,30.0642344 C9.08682353,30.0541406 6.88526471,29.0662813 5.51991176,28.14775 C9.25517647,25.6973594 11.8651765,22.4835625 14.4039706,19.3579531 C16.5539118,16.7104688 18.7774412,13.9729375 21.7514118,11.5546875 C22.6050882,10.8606094 22.7361176,9.60367188 22.0444412,8.74729688 C21.3530294,7.8911875 20.1004412,7.75890625 19.2470294,8.45325 C15.9535588,11.1312813 13.5982059,14.031375 11.3204118,16.8361094 C8.27047059,20.5917813 5.63585294,23.8353281 1.28858824,25.9829063 C0.201970588,26.4875938 -0.168882353,27.9907656 0.557205882,28.9459531 C0.693794118,29.1345469 3.69635294,33.1824062 10.1837647,33.9359844 C10.1003824,39.1270938 10.8174706,44.8582187 12.3162353,51.010625 L12.3162353,51.010625 Z M53.9714118,83.6700156 L51.1080882,91.0687344 L44.5492059,91.0687344 L41.6858824,83.6700156 L53.9714118,83.6700156 Z M47.8297059,122.785156 L41.0548235,115.918219 L44.847,95.0605469 L50.8102941,95.0605469 L54.6027353,115.918484 L47.8297059,122.785156 Z M47.8297059,79.6782031 C36.6826765,79.6782031 27.3594706,71.6959063 25.2365294,61.1282813 C27.3727059,62.9180625 30.1192941,63.9970313 33.1131176,63.9970313 C39.2227941,63.9970313 44.3046176,59.5061094 45.2586176,53.6416406 L50.4007941,53.6416406 C51.3547941,59.5061094 56.4366176,63.9970313 62.5462941,63.9970313 C65.5401176,63.9970313 68.2867059,62.9177969 70.4228824,61.1282813 C68.2999412,71.6959063 58.9767353,79.6782031 47.8297059,79.6782031 L47.8297059,79.6782031 Z M24.7822941,51.6457344 C24.7822941,47.0360781 28.5194118,43.2859844 33.1131176,43.2859844 C37.7065588,43.2859844 41.4436765,47.0360781 41.4436765,51.6457344 C41.4436765,56.255125 37.7065588,60.0052188 33.1131176,60.0052188 C28.5196765,60.0054844 24.7822941,56.2553906 24.7822941,51.6457344 Z M62.5462941,60.0054844 C57.9528529,60.0054844 54.2157353,56.2553906 54.2157353,51.646 C54.2157353,47.0363437 57.9528529,43.28625 62.5462941,43.28625 C67.14,43.28625 70.8771176,47.0363437 70.8771176,51.646 C70.8771176,56.2553906 67.1397353,60.0054844 62.5462941,60.0054844 Z M80.0883529,54.8146406 C80.0883529,58.0836875 77.6255294,60.7848281 74.4641471,61.1519219 C74.7201176,59.6559219 74.8551176,58.1190156 74.8551176,56.5510312 L74.8551176,48.5357969 C77.8259118,49.0707656 80.0883529,51.6815937 80.0883529,54.8146406 L80.0883529,54.8146406 Z M56.9443235,24.4462656 C61.3437353,33.564375 68.0148529,37.4796875 70.8768529,38.80675 L70.8768529,42.5634844 C68.6829706,40.5357031 65.7566471,39.2944375 62.5460294,39.2944375 C56.4363529,39.2944375 51.3542647,43.7853594 50.4005294,49.6500937 L45.2583529,49.6500937 C44.3046176,43.7853594 39.2225294,39.2944375 33.1128529,39.2944375 C29.9022353,39.2944375 26.9759118,40.5357031 24.7820294,42.5634844 L24.7820294,38.7807187 C30.3178235,37.9458594 47.2132059,34.6449375 56.9443235,24.4462656 L56.9443235,24.4462656 Z M20.8042941,48.5355312 L20.8042941,56.5507656 C20.8042941,58.11875 20.9392941,59.6556563 21.1952647,61.1516563 C18.0338824,60.7848281 15.5710588,58.0834219 15.5710588,54.814375 C15.5710588,51.6815937 17.8335,49.0707656 20.8042941,48.5355312 L20.8042941,48.5355312 Z" id="Shape"></path>
                        <path d="M54.0651176,62.5977187 C53.0489118,62.1780312 51.8868529,62.664125 51.4686176,63.6833281 C51.462,63.7000625 50.6972647,65.3676562 47.8299706,65.3676562 C44.9624118,65.3676562 44.1979412,63.7000625 44.1913235,63.6833281 C43.7730882,62.664125 42.6110294,62.1780312 41.5948235,62.5977187 C40.5791471,63.0174062 40.0947353,64.1840312 40.5127059,65.2032344 C41.1461471,66.7470469 43.4001176,69.3594687 47.8299706,69.3594687 C52.2598235,69.3594687 54.5137941,66.7467812 55.1472353,65.2032344 C55.5649412,64.1837656 55.0807941,63.0174062 54.0651176,62.5977187 L54.0651176,62.5977187 Z" id="Path"></path>
                        <path d="M35.6982353,56.4577969 C36.7967647,56.4577969 37.6872353,55.5642344 37.6872353,54.4618906 L37.6872353,48.8295781 C37.6872353,47.7272344 36.7967647,46.8336719 35.6982353,46.8336719 C34.5997059,46.8336719 33.7092353,47.7272344 33.7092353,48.8295781 L33.7092353,54.4618906 C33.7092353,55.5642344 34.5994412,56.4577969 35.6982353,56.4577969 Z" id="Path"></path>
                        <path d="M59.9614412,46.8336719 C58.8629118,46.8336719 57.9724412,47.7272344 57.9724412,48.8295781 L57.9724412,54.4618906 C57.9724412,55.5642344 58.8629118,56.4577969 59.9614412,56.4577969 C61.0599706,56.4577969 61.9504412,55.5642344 61.9504412,54.4618906 L61.9504412,48.8295781 C61.9504412,47.7272344 61.0599706,46.8336719 59.9614412,46.8336719 Z" id="Path"></path>
                    </g>
                </g>
            </g>
        </g>
    </g>
</svg>