<?xml version="1.0" encoding="UTF-8"?>
<svg width="188px" height="188px" viewBox="0 0 188 188" version="1.1" xmlns="http://www.w3.org/2000/svg" xmlns:xlink="http://www.w3.org/1999/xlink">
    <!-- Generator: sketchtool 57.1 (101010) - https://sketch.com -->
    <title>9B77B3A1-4ED3-46F8-B623-CC1A31A45F5A</title>
    <desc>Created with sketchtool.</desc>
    <defs>
        <circle id="path-1" cx="90" cy="90" r="90"></circle>
        <filter x="-3.9%" y="-2.8%" width="107.8%" height="107.8%" filterUnits="objectBoundingBox" id="filter-2">
            <feOffset dx="0" dy="2" in="SourceAlpha" result="shadowOffsetOuter1"></feOffset>
            <feGaussianBlur stdDeviation="2" in="shadowOffsetOuter1" result="shadowBlurOuter1"></feGaussianBlur>
            <feColorMatrix values="0 0 0 0 0   0 0 0 0 0   0 0 0 0 0  0 0 0 0.5 0" type="matrix" in="shadowBlurOuter1"></feColorMatrix>
        </filter>
    </defs>
    <g id="Page-1" stroke="none" stroke-width="1" fill="none" fill-rule="evenodd" opacity="0.319428943">
        <g id="Driver-tab-" transform="translate(-413.000000, -296.000000)">
            <g id="Group-3" transform="translate(417.000000, 298.000000)">
                <g id="Oval">
                    <use fill="black" fill-opacity="1" filter="url(#filter-2)" xlink:href="#path-1"></use>
                    <use fill="#FFFFFF" fill-rule="evenodd" xlink:href="#path-1"></use>
                </g>
                <g id="delivery" transform="translate(30.000000, 30.000000)" fill-rule="nonzero">
                    <path d="M27.0967742,71.6129032 L10.1322581,76.8329032 C5.26064516,78.3309677 1.93548387,82.8329032 1.93548387,87.9309677 L1.93548387,118.064516 L79.3548387,118.064516 L79.3548387,87.9309677 C79.3548387,82.8329032 76.0296774,78.3309677 71.1580645,76.8309677 L54.1935484,71.6129032" id="Path" fill="#2D4D83"></path>
                    <polyline id="Path" fill="#4D5D7A" points="42.5806452 75.483871 47.8703226 86.0651613 40.6451613 98.7096774 33.42 86.0651613 38.7096774 75.483871"></polyline>
                    <polygon id="Path" fill="#4472B2" points="21.2206452 73.4206452 30.9677419 90.9677419 40.6451613 71.6129032 27.0967742 71.6129032"></polygon>
                    <polygon id="Path" fill="#4472B2" points="40.6451613 71.6129032 50.3225806 90.9677419 60.0696774 73.4206452 54.1935484 71.6129032"></polygon>
                    <path d="M40.6451613,100.645161 C39.9503226,100.645161 39.3096774,100.273548 38.9651613,99.6696774 L31.2232258,86.1212903 L34.5832258,84.2012903 L40.6451613,94.8077419 L46.7070968,84.2012903 L50.0670968,86.1212903 L42.3251613,99.6696774 C41.9806452,100.273548 41.34,100.645161 40.6451613,100.645161 L40.6451613,100.645161 Z" id="Path" fill="#000000"></path>
                    <path d="M61.9354839,54.1935484 L65.8064516,54.1935484 C70.0819355,54.1935484 73.5483871,50.7270968 73.5483871,46.4516129 C73.5483871,42.176129 70.0819355,38.7096774 65.8064516,38.7096774 L61.9354839,38.7096774" id="Path" fill="#DB9B7C"></path>
                    <path d="M19.3548387,54.1935484 L15.483871,54.1935484 C11.2083871,54.1935484 7.74193548,50.7270968 7.74193548,46.4516129 C7.74193548,42.176129 11.2083871,38.7096774 15.483871,38.7096774 L19.3548387,38.7096774" id="Path" fill="#DB9B7C"></path>
                    <path d="M65.8064516,27.0967742 L65.8064516,50.3225806 C65.8064516,64.2193548 54.5419355,75.483871 40.6451613,75.483871 C26.7483871,75.483871 15.483871,64.2193548 15.483871,50.3225806 L15.483871,27.0967742 C15.483871,13.2 26.7483871,1.93548387 40.6451613,1.93548387 C54.5419355,1.93548387 65.8064516,13.2 65.8064516,27.0967742 Z" id="Path" fill="#EFBE9A"></path>
                    <path d="M15.483871,29.0322581 L23.2258065,32.9032258 L29.3303226,30.8690323 C32.9787097,29.6516129 36.7993548,29.0322581 40.6451613,29.0322581 C44.4909677,29.0322581 48.3116129,29.6516129 51.96,30.8690323 L58.0645161,32.9032258 L65.8064516,29.0322581 L65.8064516,27.0967742 C65.8064516,13.2 54.5419355,1.93548387 40.6451613,1.93548387 C26.7483871,1.93548387 15.483871,13.2 15.483871,27.0967742 L15.483871,29.0322581 Z" id="Path" fill="#4472B2"></path>
                    <path d="M59.7116129,23.6380645 L65.7077419,25.1380645 C64.7051613,12.1587097 53.88,1.93548387 40.6451613,1.93548387 C27.4103226,1.93548387 16.5851613,12.1587097 15.5825806,25.136129 L21.5787097,23.636129 C27.8148387,22.0780645 34.2174194,21.2903226 40.6451613,21.2903226 C47.0729032,21.2903226 53.4754839,22.0780645 59.7116129,23.6380645 Z" id="Path" fill="#C66B60"></path>
                    <polygon id="Path" fill="#EBF7FE" points="71.6129032 118.064516 118.064516 118.064516 118.064516 73.5483871 104.516129 73.5483871 104.516129 60 71.6129032 60"></polygon>
                    <polyline id="Path" fill="#C7E2FC" points="104.516129 60 104.516129 73.5483871 118.064516 73.5483871"></polyline>
                    <polygon id="Path" fill="#000000" points="63.8709677 92.9032258 67.7419355 92.9032258 67.7419355 118.064516 63.8709677 118.064516"></polygon>
                    <polygon id="Path" fill="#000000" points="13.5483871 92.9032258 17.4193548 92.9032258 17.4193548 118.064516 13.5483871 118.064516"></polygon>
                    <path d="M71.6129032,120 L1.93548387,120 C0.867096774,120 0,119.134839 0,118.064516 L0,87.9329032 C0,81.9483871 3.84387097,76.743871 9.56322581,74.9825806 L26.5277419,69.7645161 L27.6658065,73.4651613 L10.7012903,78.6832258 C6.61548387,79.9393548 3.87096774,83.6574194 3.87096774,87.9329032 L3.87096774,116.129032 L71.6129032,116.129032 L71.6129032,120 Z" id="Path" fill="#000000"></path>
                    <path d="M70.9703226,78.8090323 L70.5870968,78.6812903 L53.6245161,73.4651613 L54.7625806,69.7645161 L71.7270968,74.9825806 C71.9070968,75.0387097 72.0832258,75.0987097 72.2554839,75.1587097 L70.9703226,78.8090323 Z" id="Path" fill="#000000"></path>
                    <path d="M30.9677419,92.9032258 C30.2651613,92.9032258 29.6167742,92.523871 29.276129,91.9064516 L19.5987097,74.4870968 L22.9819355,72.6077419 L30.8787097,86.82 L36.9793548,74.6167742 L40.4419355,76.3490323 L32.7,91.8329032 C32.3787097,92.4754839 31.7283871,92.8877419 31.0103226,92.9032258 C30.9967742,92.9032258 30.9812903,92.9032258 30.9677419,92.9032258 L30.9677419,92.9032258 Z" id="Path" fill="#000000"></path>
                    <path d="M50.3225806,92.9032258 C50.3090323,92.9032258 50.2935484,92.9032258 50.2819355,92.9032258 C49.563871,92.8877419 48.9135484,92.4754839 48.5922581,91.8329032 L40.8503226,76.3490323 L44.3129032,74.6167742 L50.4135484,86.82 L58.3103226,72.6077419 L61.6935484,74.4870968 L52.016129,91.9064516 C51.6735484,92.523871 51.0251613,92.9032258 50.3225806,92.9032258 L50.3225806,92.9032258 Z" id="Path" fill="#000000"></path>
                    <polygon id="Path" fill="#000000" points="38.7096774 98.7096774 42.5806452 98.7096774 42.5806452 118.064516 38.7096774 118.064516"></polygon>
                    <path d="M40.6451613,77.4193548 C25.7032258,77.4193548 13.5483871,65.2645161 13.5483871,50.3225806 L13.5483871,27.0967742 C13.5483871,12.1548387 25.7032258,0 40.6451613,0 C55.5870968,0 67.7419355,12.1548387 67.7419355,27.0967742 L67.7419355,50.3225806 C67.7419355,65.2645161 55.5870968,77.4193548 40.6451613,77.4193548 Z M40.6451613,3.87096774 C27.8380645,3.87096774 17.4193548,14.2896774 17.4193548,27.0967742 L17.4193548,50.3225806 C17.4193548,63.1296774 27.8380645,73.5483871 40.6451613,73.5483871 C53.4522581,73.5483871 63.8709677,63.1296774 63.8709677,50.3225806 L63.8709677,27.0967742 C63.8709677,14.2896774 53.4522581,3.87096774 40.6451613,3.87096774 Z" id="Shape" fill="#000000"></path>
                    <path d="M15.483871,56.1290323 C10.1477419,56.1290323 5.80645161,51.7877419 5.80645161,46.4516129 C5.80645161,41.1154839 10.1477419,36.7741935 15.483871,36.7741935 L15.483871,40.6451613 C12.2825806,40.6451613 9.67741935,43.2503226 9.67741935,46.4516129 C9.67741935,49.6529032 12.2825806,52.2580645 15.483871,52.2580645 L15.483871,56.1290323 Z" id="Path" fill="#000000"></path>
                    <path d="M65.8064516,56.1290323 L65.8064516,52.2580645 C69.0077419,52.2580645 71.6129032,49.6529032 71.6129032,46.4516129 C71.6129032,43.2503226 69.0077419,40.6451613 65.8064516,40.6451613 L65.8064516,36.7741935 C71.1425806,36.7741935 75.483871,41.1154839 75.483871,46.4516129 C75.483871,51.7877419 71.1425806,56.1290323 65.8064516,56.1290323 Z" id="Path" fill="#000000"></path>
                    <path d="M65.336129,27.0387097 L59.2412903,25.5154839 C47.0903226,22.4806452 34.2,22.4806452 22.0490323,25.5154839 L15.9541935,27.0387097 L15.0135484,23.283871 L21.1083871,21.7606452 C33.8748387,18.5670968 47.4135484,18.5670968 60.18,21.7606452 L66.2748387,23.283871 L65.336129,27.0387097 Z" id="Path" fill="#000000"></path>
                    <path d="M58.0645161,34.8387097 C57.8593548,34.8387097 57.6522581,34.8058065 57.4529032,34.7380645 L51.3483871,32.7019355 C44.4329032,30.4006452 36.8593548,30.3987097 29.9419355,32.703871 L23.8393548,34.7380645 C23.3516129,34.9045161 22.8193548,34.863871 22.3606452,34.6335484 L14.6187097,30.7625806 L16.3509677,27.3 L23.3748387,30.8109677 L28.7167742,29.0322581 C36.4258065,26.4619355 44.8625806,26.463871 52.5716129,29.0303226 L57.9154839,30.8129032 L64.9393548,27.3019355 L66.6716129,30.7645161 L58.9296774,34.6354839 C58.6587097,34.7709677 58.3625806,34.8387097 58.0645161,34.8387097 L58.0645161,34.8387097 Z" id="Path" fill="#000000"></path>
                    <polygon id="Path" fill="#000000" points="38.7096774 44.516129 42.5806452 44.516129 42.5806452 52.2580645 38.7096774 52.2580645"></polygon>
                    <path d="M30,46.4516129 C28.3993548,46.4516129 27.0967742,45.1490323 27.0967742,43.5483871 C27.0967742,41.9477419 28.3993548,40.6451613 30,40.6451613 C31.6006452,40.6451613 32.9032258,41.9477419 32.9032258,43.5483871 C32.9032258,45.1490323 31.6006452,46.4516129 30,46.4516129 Z" id="Path" fill="#000000"></path>
                    <path d="M51.2903226,46.4516129 C49.6896774,46.4516129 48.3870968,45.1490323 48.3870968,43.5483871 C48.3870968,41.9477419 49.6896774,40.6451613 51.2903226,40.6451613 C52.8909677,40.6451613 54.1935484,41.9477419 54.1935484,43.5483871 C54.1935484,45.1490323 52.8909677,46.4516129 51.2903226,46.4516129 Z" id="Path" fill="#000000"></path>
                    <path d="M40.6451613,69.6774194 C33.1741935,69.6774194 27.0967742,63.5980645 27.0967742,56.1290323 L30.9677419,56.1290323 C30.9677419,61.4651613 35.3090323,65.8064516 40.6451613,65.8064516 C45.9812903,65.8064516 50.3225806,61.4651613 50.3225806,56.1290323 L54.1935484,56.1290323 C54.1935484,63.5980645 48.116129,69.6774194 40.6451613,69.6774194 Z" id="Path" fill="#000000"></path>
                    <path d="M118.064516,120 L71.6129032,120 C70.5445161,120 69.6774194,119.134839 69.6774194,118.064516 L69.6774194,60 C69.6774194,58.9296774 70.5445161,58.0645161 71.6129032,58.0645161 L104.516129,58.0645161 C105.584516,58.0645161 106.451613,58.9296774 106.451613,60 L106.451613,71.6129032 L118.064516,71.6129032 C119.132903,71.6129032 120,72.4780645 120,73.5483871 L120,118.064516 C120,119.134839 119.132903,120 118.064516,120 Z M73.5483871,116.129032 L116.129032,116.129032 L116.129032,75.483871 L104.516129,75.483871 C103.447742,75.483871 102.580645,74.6187097 102.580645,73.5483871 L102.580645,61.9354839 L73.5483871,61.9354839 L73.5483871,116.129032 Z" id="Shape" fill="#000000"></path>
                    <polygon id="Path" fill="#000000" transform="translate(111.268915, 66.778749) rotate(-45.000000) translate(-111.268915, -66.778749) " points="109.333724 57.2005179 113.204107 57.2005179 113.204107 76.3569795 109.333724 76.3569795"></polygon>
                    <polygon id="Path" fill="#000000" points="77.4193548 108.387097 96.7741935 108.387097 96.7741935 112.258065 77.4193548 112.258065"></polygon>
                    <polygon id="Path" fill="#000000" points="77.4193548 100.645161 96.7741935 100.645161 96.7741935 104.516129 77.4193548 104.516129"></polygon>
                    <polygon id="Path" fill="#000000" points="77.4193548 92.9032258 96.7741935 92.9032258 96.7741935 96.7741935 77.4193548 96.7741935"></polygon>
                    <polygon id="Path" fill="#000000" points="77.4193548 85.1612903 96.7741935 85.1612903 96.7741935 89.0322581 77.4193548 89.0322581"></polygon>
                    <path d="M106.451613,94.8387097 C105.807097,94.8387097 105.20129,94.5174194 104.84129,93.9774194 L100.970323,88.1709677 L104.190968,86.0245161 L106.08,88.8580645 L110.479355,78.5941935 L114.036774,80.1174194 L108.230323,93.6658065 C107.949677,94.32 107.336129,94.7651613 106.627742,94.8329032 C106.569677,94.8367742 106.509677,94.8387097 106.451613,94.8387097 Z" id="Path" fill="#000000"></path>
                    <path d="M106.451613,112.258065 C105.807097,112.258065 105.20129,111.936774 104.84129,111.396774 L100.970323,105.590323 L104.190968,103.443871 L106.08,106.277419 L110.479355,96.0135484 L114.036774,97.5367742 L108.230323,111.085161 C107.949677,111.739355 107.336129,112.184516 106.627742,112.252258 C106.569677,112.256129 106.509677,112.258065 106.451613,112.258065 Z" id="Path" fill="#000000"></path>
                </g>
            </g>
        </g>
    </g>
</svg>